<svg xmlns="http://www.w3.org/2000/svg" width="149" height="37" fill="none"><path fill="#0B132A" d="M47.04 25.116a.46.46 0 0 1-.34-.14.46.46 0 0 1-.14-.34v-13.04q0-.22.14-.34a.46.46 0 0 1 .34-.14h1.88q.22 0 .34.14.14.12.14.34v11.12h6.34q.22 0 .36.14t.14.34v1.44a.46.46 0 0 1-.14.34.49.49 0 0 1-.36.14zm13.921.2q-1.02 0-1.88-.4a3.6 3.6 0 0 1-1.34-1.12q-.48-.7-.48-1.54 0-1.36 1.1-2.2t3.02-1.14l2.74-.4v-.42q0-.86-.44-1.3t-1.4-.44q-.66 0-1.06.24t-.66.5l-.32.32q-.08.24-.3.24h-1.56a.48.48 0 0 1-.32-.12.43.43 0 0 1-.12-.32q.02-.5.48-1.12.48-.64 1.46-1.1.98-.48 2.42-.48 2.36 0 3.44 1.06t1.08 2.78v6.28a.46.46 0 0 1-.14.34.42.42 0 0 1-.34.14h-1.66a.46.46 0 0 1-.34-.14.46.46 0 0 1-.14-.34v-.78q-.44.64-1.24 1.06-.8.4-2 .4m.68-1.92q1.1 0 1.8-.72t.7-2.08v-.4l-2 .32q-2.3.36-2.3 1.54 0 .64.52 1 .54.34 1.28.34m11.705 1.92q-1.52 0-2.54-.46t-1.52-1.06q-.48-.62-.48-1.06 0-.2.12-.32.14-.12.32-.12h1.64q.16 0 .28.16.1.08.44.38.36.3.8.48.46.16 1 .16.8 0 1.3-.3.5-.32.5-.9 0-.4-.24-.64-.22-.26-.82-.46-.58-.219-1.76-.48-1.7-.36-2.52-1.1-.8-.74-.8-1.96 0-.8.48-1.5.48-.72 1.42-1.16.96-.46 2.28-.46 1.36 0 2.34.44.98.42 1.48 1.02.52.6.52 1.06a.44.44 0 0 1-.14.32q-.12.12-.3.12h-1.5a.4.4 0 0 1-.34-.16 11 11 0 0 1-.46-.36 2.3 2.3 0 0 0-.68-.44q-.38-.16-.92-.16-.74 0-1.14.32-.4.321-.4.84 0 .36.18.6.201.24.78.46.58.2 1.74.42 3.6.7 3.6 3.14 0 1.42-1.24 2.3-1.22.88-3.42.88m7.204-.2a.46.46 0 0 1-.34-.14.46.46 0 0 1-.14-.34v-13.24q0-.22.14-.34a.46.46 0 0 1 .34-.14h1.68q.22 0 .34.14.14.12.14.34v13.24a.46.46 0 0 1-.14.34.42.42 0 0 1-.34.14zm9.313.2q-2.24 0-3.56-1.28-1.3-1.28-1.38-3.64l-.02-.5q0-2.5 1.3-3.94 1.32-1.44 3.64-1.44 2.38 0 3.66 1.44 1.3 1.44 1.3 3.84v.42a.46.46 0 0 1-.14.34.49.49 0 0 1-.36.14h-6.64v.16q.04 1.12.6 1.86.58.72 1.58.72 1.14 0 1.86-.92.18-.22.28-.26.1-.06.34-.06h1.76q.18 0 .3.1.14.1.14.28 0 .48-.58 1.14-.56.64-1.62 1.12t-2.46.48m2.18-6.32v-.04q0-1.18-.6-1.88-.58-.72-1.6-.72t-1.6.72q-.58.7-.58 1.88v.04zm8.842 6.32q-1.52 0-2.54-.46t-1.52-1.06q-.48-.62-.48-1.06 0-.2.12-.32.14-.12.32-.12h1.64q.16 0 .28.16.1.08.44.38.36.3.8.48.46.16 1 .16.8 0 1.3-.3.5-.32.5-.9 0-.4-.24-.64-.22-.26-.82-.46-.58-.219-1.76-.48-1.7-.36-2.52-1.1-.8-.74-.8-1.96 0-.8.48-1.5.48-.72 1.42-1.16.96-.46 2.28-.46 1.36 0 2.34.44.98.42 1.48 1.02.52.6.52 1.06 0 .18-.14.32-.12.12-.3.12h-1.5a.4.4 0 0 1-.34-.16 12 12 0 0 1-.46-.36 2.3 2.3 0 0 0-.68-.44q-.38-.16-.92-.16-.74 0-1.14.32-.4.321-.4.84 0 .36.18.6.201.24.78.46.58.2 1.74.42 3.6.7 3.6 3.14 0 1.42-1.24 2.3-1.22.88-3.42.88m10.745-.2a.93.93 0 0 1-.56-.16.95.95 0 0 1-.28-.44l-4.04-12.8-.04-.18q0-.16.12-.28a.44.44 0 0 1 .32-.14h2.62q.3 0 .48.18.2.16.26.36l2.72 9.04 2.74-9.04a.77.77 0 0 1 .24-.38q.2-.16.5-.16h2.62q.18 0 .3.14.12.12.12.28a.8.8 0 0 1-.02.18l-4.06 12.8a.8.8 0 0 1-.28.44q-.201.16-.54.16zm10.445 0a.53.53 0 0 1-.36-.14.53.53 0 0 1-.14-.36v-12.98q0-.219.14-.36a.46.46 0 0 1 .36-.16h5.66q2.6 0 4.08 1.18t1.48 3.46-1.48 3.42q-1.48 1.12-4.08 1.12h-2.28v4.32a.53.53 0 0 1-.14.36.49.49 0 0 1-.36.14zm5.56-7.68q.82 0 1.28-.42.48-.44.48-1.28 0-.78-.44-1.26-.42-.48-1.32-.48h-2.24v3.44zm8.014 7.68a.53.53 0 0 1-.36-.14.53.53 0 0 1-.14-.36v-12.98q0-.219.14-.36a.46.46 0 0 1 .36-.16h2.26q.46 0 .68.38l4.72 7.46v-7.32q0-.219.14-.36a.46.46 0 0 1 .36-.16h2.54q.22 0 .36.16.14.14.14.36v12.96a.56.56 0 0 1-.14.38.49.49 0 0 1-.36.14h-2.26q-.46 0-.68-.38l-4.7-7.16v7.04a.46.46 0 0 1-.16.36.49.49 0 0 1-.36.14z"/><path fill="#F53838" d="m31.147 13.648-.021-.022-.005-.005L17.502 0 3.88 13.62l-.004.006-.023.021a13.245 13.245 0 0 0 13.283 22c.238-.072.492-.072.73 0a13.243 13.243 0 0 0 17.04-14.242 13.25 13.25 0 0 0-3.759-7.757M8.723 22.63a.71.71 0 0 0-.209.505 13.2 13.2 0 0 0 1.965 6.802.258.258 0 0 1-.317.375 7.947 7.947 0 0 1-2.543-12.938L17.5 7.493l9.882 9.881a7.945 7.945 0 0 1-.007 11.231 7.9 7.9 0 0 1-2.536 1.707.26.26 0 0 1-.318-.375 13.2 13.2 0 0 0 1.966-6.802.71.71 0 0 0-.21-.505l-4.674-4.958a.26.26 0 0 0-.391.326c1.815 3.285.254 8.004-2.35 10.607l-.013.014a1.92 1.92 0 0 1-2.7 0l-.012-.014C13.534 26.002 11.974 21.284 13.79 18a.258.258 0 0 0-.39-.327z"/></svg>